<svg width="41" height="41" viewBox="0 0 41 41" fill="none" xmlns="http://www.w3.org/2000/svg">
<path d="M13.6683 20.5C13.6683 16.7262 16.7269 13.6661 20.5008 13.6661C24.2748 13.6661 27.335 16.7262 27.335 20.5C27.335 24.2738 24.2748 27.3339 20.5008 27.3339C16.7269 27.3339 13.6683 24.2738 13.6683 20.5ZM9.9739 20.5C9.9739 26.3138 14.6868 31.0265 20.5008 31.0265C26.3149 31.0265 31.0277 26.3138 31.0277 20.5C31.0277 14.6862 26.3149 9.9735 20.5008 9.9735C14.6868 9.9735 9.9739 14.6862 9.9739 20.5ZM28.9844 9.55612C28.9838 10.9147 30.0848 12.0166 31.4435 12.0171C32.8022 12.0176 33.904 10.9167 33.9046 9.55808C33.9051 8.19946 32.8041 7.09764 31.4455 7.0971C30.0874 7.09773 28.9856 8.19814 28.9844 9.55612ZM12.2185 37.1865C10.2197 37.0955 9.13336 36.7626 8.4114 36.4813C7.45426 36.1087 6.77134 35.6649 6.05332 34.9479C5.3353 34.2309 4.89084 33.5487 4.51986 32.5916C4.23842 31.87 3.90549 30.7833 3.81463 28.7846C3.71524 26.6238 3.6954 25.9746 3.6954 20.5002C3.6954 15.0257 3.71688 14.3784 3.81463 12.2157C3.90565 10.217 4.24105 9.1325 4.51986 8.40877C4.89248 7.45167 5.33628 6.76877 6.05332 6.05078C6.77036 5.33279 7.45262 4.88835 8.4114 4.51738C9.13303 4.23596 10.2197 3.90304 12.2185 3.81218C14.3794 3.7128 15.0286 3.69295 20.5008 3.69295C25.9731 3.69295 26.6229 3.71444 28.7856 3.81218C30.7844 3.9032 31.8689 4.23858 32.5927 4.51738C33.5498 4.88835 34.2328 5.33377 34.9508 6.05078C35.6688 6.76779 36.1116 7.45167 36.4842 8.40877C36.7657 9.13037 37.0986 10.217 37.1895 12.2157C37.2889 14.3784 37.3087 15.0257 37.3087 20.5002C37.3087 25.9746 37.2889 26.622 37.1895 28.7846C37.0984 30.7833 36.7639 31.8696 36.4842 32.5916C36.1116 33.5487 35.6678 34.2316 34.9508 34.9479C34.2337 35.6643 33.5498 36.1087 32.5927 36.4813C31.8711 36.7627 30.7844 37.0957 28.7856 37.1865C26.6247 37.2859 25.9755 37.3057 20.5008 37.3057C15.0261 37.3057 14.3788 37.2859 12.2185 37.1865ZM12.0487 0.124148C9.86631 0.223532 8.375 0.569572 7.07262 1.07633C5.72383 1.59966 4.58202 2.30174 3.44102 3.44088C2.30003 4.58003 1.59972 5.7236 1.07638 7.07234C0.569595 8.37548 0.223541 9.86591 0.124153 12.0483C0.0231249 14.2341 0 14.9329 0 20.5C0 26.0671 0.0231249 26.7659 0.124153 28.9517C0.223541 31.1343 0.569595 32.6245 1.07638 33.9277C1.59972 35.2756 2.30019 36.4205 3.44102 37.5591C4.58185 38.6978 5.72383 39.3989 7.07262 39.9237C8.37746 40.4304 9.86631 40.7765 12.0487 40.8759C14.2358 40.9752 14.9335 41 20.5008 41C26.0682 41 26.767 40.9769 28.9529 40.8759C31.1355 40.7765 32.6258 40.4304 33.929 39.9237C35.277 39.3989 36.4196 38.6983 37.5606 37.5591C38.7016 36.42 39.4004 35.2756 39.9253 33.9277C40.432 32.6245 40.7797 31.1341 40.8775 28.9517C40.9769 26.7643 41 26.0671 41 20.5C41 14.9329 40.9769 14.2341 40.8775 12.0483C40.7781 9.86575 40.432 8.37466 39.9253 7.07234C39.4004 5.72442 38.6998 4.58183 37.5606 3.44088C36.4214 2.29994 35.277 1.59966 33.9307 1.07633C32.6258 0.569572 31.1353 0.221892 28.9545 0.124148C26.7687 0.024764 26.0698 0 20.5025 0C14.9351 0 14.2358 0.023124 12.0487 0.124148Z" fill="url(#paint0_radial_8_215)"/>
<defs>
<radialGradient id="paint0_radial_8_215" cx="0" cy="0" r="1" gradientUnits="userSpaceOnUse" gradientTransform="translate(87.157 659.099) scale(856.387)">
<stop offset="0.09" stop-color="#FA8F21"/>
<stop offset="0.78" stop-color="#D82D7E"/>
</radialGradient>
</defs>
</svg>
