<svg width="41" height="41" viewBox="0 0 41 41" fill="none" xmlns="http://www.w3.org/2000/svg">
<path d="M34.85 0H6.15C2.75345 0 0 2.75345 0 6.15V34.85C0 38.2466 2.75345 41 6.15 41H34.85C38.2466 41 41 38.2466 41 34.85V6.15C41 2.75345 38.2466 0 34.85 0Z" fill="#25D366"/>
<path d="M9.84957 31.4707L10.9707 26.2656C9.52973 23.9929 8.96762 21.2724 9.38979 18.6147C9.81197 15.957 11.1894 13.5447 13.2637 11.8303C15.338 10.116 17.9665 9.21741 20.6562 9.30323C23.3458 9.38906 25.9118 10.4534 27.8725 12.2965C29.8333 14.1396 31.0541 16.6348 31.306 19.3141C31.5579 21.9933 30.8235 24.6723 29.2406 26.8486C27.6577 29.0249 25.3351 30.5487 22.7085 31.1343C20.082 31.7199 17.332 31.327 14.9746 30.0293L9.84957 31.4707Z" fill="#25D366" stroke="white" stroke-width="2"/>
<path d="M24.664 21.8613C24.4238 21.7012 24.1836 21.6211 23.9433 21.9414L22.9824 23.2227C22.7422 23.3828 22.582 23.4629 22.2617 23.3027C21.0605 22.6621 19.3789 21.9414 17.9375 19.5391C17.8574 19.2187 18.0176 19.0586 18.1777 18.8984L18.8984 17.7773C19.0586 17.6172 18.9785 17.457 18.8984 17.2969L17.9375 14.9746C17.6972 14.334 17.457 14.4141 17.2168 14.4141H16.5762C16.416 14.4141 16.0957 14.4941 15.7754 14.8145C14.0137 16.5762 14.7344 19.0586 16.0156 20.6602C16.2558 20.9805 17.8574 23.8633 21.3008 25.3848C23.8633 26.5059 24.4238 26.3457 25.1445 26.1855C26.0254 26.1055 26.9062 25.3848 27.3066 24.6641C27.3867 24.4238 27.7871 23.3828 27.4668 23.2227" fill="white"/>
</svg>
