<svg width="41" height="41" viewBox="0 0 41 41" fill="none" xmlns="http://www.w3.org/2000/svg">
<path d="M34.85 0H6.15C2.75345 0 0 2.75345 0 6.15V34.85C0 38.2466 2.75345 41 6.15 41H34.85C38.2466 41 41 38.2466 41 34.85V6.15C41 2.75345 38.2466 0 34.85 0Z" fill="#1877F2"/>
<path d="M28.4758 26.4258L29.3887 20.5H23.7031V16.6562C23.7031 15.0387 24.4959 13.4531 27.0424 13.4531H29.6289V8.4082C29.6289 8.4082 27.2826 8.00781 25.0404 8.00781C20.3559 8.00781 17.2969 10.8426 17.2969 15.9836V20.5H12.0918V26.4258H17.2969V41H23.7031V26.4258H28.4758Z" fill="white"/>
</svg>
